<?xml version="1.0" standalone="no"?>
<!DOCTYPE svg PUBLIC "-//W3C//DTD SVG 20010904//EN"
 "http://www.w3.org/TR/2001/REC-SVG-20010904/DTD/svg10.dtd">
<svg version="1.0" xmlns="http://www.w3.org/2000/svg"
 width="820.000000pt" height="820.000000pt" viewBox="0 0 820.000000 820.000000"
 preserveAspectRatio="xMidYMid meet">
<metadata>
Created by potrace 1.14, written by Peter Selinger 2001-2017
</metadata>
<g transform="translate(0.000000,820.000000) scale(0.100000,-0.100000)"
fill="#000000" stroke="none">
<path d="M3250 7220 c-9 -6 -10 -10 -3 -10 6 0 15 5 18 10 8 12 4 12 -15 0z"/>
<path d="M5330 7220 c-9 -6 -10 -10 -3 -10 6 0 15 5 18 10 8 12 4 12 -15 0z"/>
<path d="M6345 6570 c-3 -6 1 -7 9 -4 18 7 21 14 7 14 -6 0 -13 -4 -16 -10z"/>
<path d="M5557 6139 c-321 -21 -582 -150 -747 -367 -63 -83 -142 -243 -170
-342 -62 -224 -66 -506 -10 -724 75 -295 279 -535 543 -637 133 -51 240 -69
446 -76 260 -8 406 12 679 94 l122 38 0 337 0 338 80 0 80 0 0 160 0 160 -420
0 -421 0 3 -152 3 -153 100 -5 100 -5 3 -197 2 -197 -52 -17 c-80 -25 -295
-31 -378 -9 -167 43 -297 147 -368 296 -67 139 -77 188 -76 394 0 152 3 192
21 256 57 205 177 347 343 407 150 55 363 58 535 7 l53 -15 6 -62 c3 -35 9
-100 12 -145 l7 -83 178 0 179 0 0 283 0 283 -97 31 c-275 89 -495 119 -756
102z"/>
<path d="M1500 5945 l0 -165 95 0 95 0 -2 -707 -3 -708 -92 -3 -93 -3 0 -165
0 -165 603 4 c671 4 675 4 815 73 174 85 276 255 289 479 13 242 -88 413 -293
493 l-48 19 58 29 c121 59 203 160 236 291 65 253 -49 528 -262 628 -130 61
-179 65 -824 65 l-574 0 0 -165z m1052 -191 c39 -12 65 -29 99 -63 57 -59 73
-112 67 -220 -6 -109 -38 -163 -117 -199 -53 -26 -65 -27 -248 -30 l-193 -4 0
273 0 272 169 -7 c105 -4 190 -13 223 -22z m30 -861 c48 -23 75 -43 97 -74 83
-114 79 -271 -10 -372 -60 -69 -101 -78 -327 -75 -100 2 -182 6 -182 11 0 4 0
129 0 278 l0 271 178 -4 c174 -4 179 -5 244 -35z"/>
<path d="M3480 5945 l0 -165 95 0 95 0 0 -705 0 -705 -95 0 -95 0 0 -170 0
-170 425 0 425 0 0 170 0 170 -95 0 -95 0 2 703 3 702 92 3 92 3 3 155 c2 85
2 159 0 164 -2 6 -158 10 -428 10 l-424 0 0 -165z"/>
<path d="M1464 3717 c-3 -8 -4 -54 -2 -103 l3 -89 53 -3 52 -3 0 -434 0 -434
-57 -3 -58 -3 -3 -98 -3 -99 368 5 c329 4 376 6 439 24 159 45 268 134 331
270 47 101 64 195 64 343 0 214 -47 346 -166 466 -75 75 -139 112 -240 139
-122 32 -770 50 -781 22z m677 -242 c94 -33 168 -126 198 -250 20 -79 15 -239
-8 -315 -53 -170 -144 -230 -373 -246 l-98 -7 0 423 0 423 118 -6 c70 -3 136
-12 163 -22z"/>
<path d="M3231 3518 c-44 -117 -136 -359 -204 -538 l-124 -325 -57 -3 -56 -3
0 -99 0 -100 255 0 255 0 0 100 0 100 -55 0 c-30 0 -55 3 -55 7 0 4 12 38 26
75 l26 68 220 -2 220 -3 24 -64 c13 -35 24 -67 24 -72 0 -5 -25 -9 -55 -9
l-55 0 0 -100 0 -100 265 0 265 0 0 100 0 100 -54 0 c-30 0 -58 5 -62 11 -4 6
-100 248 -215 538 l-208 526 -149 3 -149 3 -82 -213z m302 -293 c36 -104 69
-198 72 -207 7 -17 -4 -18 -144 -18 l-150 0 61 173 c33 94 65 191 71 215 6 23
13 39 17 35 4 -5 36 -93 73 -198z"/>
<path d="M4187 3723 c-4 -3 -7 -91 -7 -195 l0 -188 110 0 110 0 0 85 0 85 100
0 100 0 0 -430 0 -430 -80 0 c-46 0 -80 -4 -80 -10 -1 -5 -1 -49 -1 -97 l-1
-88 311 -3 311 -2 0 100 0 100 -85 0 -85 0 0 430 0 430 105 0 105 0 0 -85 0
-85 110 0 110 0 0 195 0 195 -563 0 c-310 0 -567 -3 -570 -7z"/>
<path d="M5836 3663 c-14 -38 -106 -279 -205 -538 l-179 -470 -56 -3 -56 -3 0
-99 0 -100 255 0 255 0 0 100 0 100 -55 0 c-30 0 -55 3 -55 8 0 4 11 36 24 72
l24 65 222 0 222 0 24 -64 c13 -35 24 -67 24 -72 0 -5 -25 -9 -55 -9 l-55 0 0
-100 0 -100 265 0 265 0 0 100 0 99 -57 3 -58 3 -66 165 c-37 91 -133 333
-214 538 l-147 372 -148 0 -148 0 -26 -67z m258 -453 l73 -205 -145 -3 c-80
-1 -146 -1 -148 1 -2 2 25 86 60 188 36 101 68 197 72 214 4 16 9 25 11 20 2
-6 37 -102 77 -215z"/>
</g>
</svg>
